<?xml version="1.0" encoding="utf-8"?><svg xmlns="http://www.w3.org/2000/svg" xmlns:xlink="http://www.w3.org/1999/xlink"><symbol viewBox="0 0 512 512" id="icon-youtube" xmlns="http://www.w3.org/2000/svg"><path d="M221.1 196l95.5 55-95.5 54.9z"/><path d="M437 0H75C33.7 0 0 33.6 0 75v362c0 41.3 33.7 75 75 75h362c41.3 0 75-33.6 75-75V75c0-41.4-33.7-75-75-75zm4 251.3s0 59.5-7.5 88.2c-4.2 15.7-16.6 28.1-32.3 32.3-28.7 7.5-143.5 7.5-143.5 7.5s-114.5 0-143.5-7.8c-15.7-4.2-28.1-16.6-32.3-32.3-7.5-28.4-7.5-88.2-7.5-88.2s0-59.5 7.5-88.2c4.2-15.7 16.9-28.4 32.3-32.6 28.7-7.5 143.5-7.5 143.5-7.5s114.8 0 143.5 7.8c15.7 4.2 28.1 16.6 32.3 32.3 7.8 28.7 7.5 88.5 7.5 88.5z"/></symbol></svg>